<svg xmlns="http://www.w3.org/2000/svg" id="Capa_1" data-name="Capa 1" viewBox="0 0 1600 436.1"><defs><style>      .cls-1 {        fill: red;      }      .cls-1, .cls-2 {        stroke-width: 0px;      }      .cls-2 {        fill: #fff;      }    </style></defs><g><polygon class="cls-2" points="1479.2 141.4 1441.8 141.4 1321.3 348 1371.1 348 1460.7 189.8 1550.1 348 1600 348 1479.2 141.4"></polygon><path class="cls-2" d="M1003.9,277.4c31.3-8.1,47.7-30.9,47.7-66.4s-6.6-39.8-19.6-51.8c-13-11.9-32-17.9-56.6-17.9h-312.8l-22.4,38.4h333c32.9.5,36.7,18.1,36.7,31.2s-2.1,15.6-6.5,20.6c-5.9,6.7-16,10.3-29.9,10.5h-158v105.9h41.8v-67.4h97.6l55.8,67.4h53.2l-60-70.6Z"></path><polygon class="cls-2" points="571.9 296.9 571.9 348 789.6 348 789.6 309.5 613.8 309.5 613.8 264 740.2 264 740.2 225.5 613.8 225.5 613.8 225.2 571.9 296.9"></polygon><path class="cls-2" d="M1286.4,239.9c-16-7.5-46.1-12.5-91.8-15.3-26.3-1.9-44.4-4-53.5-6.2-20.5-5-20.5-12.9-20.5-15.5,0-4.4,1.3-8.1,4-11.2,6-6.8,22.6-14.9,67.1-14.9s1.5,0,2.3,0c35.5.4,68.3,6,97.5,16.7l6.1,2.2,11.5-37.5-5.1-2.1c-28.1-11.7-65.1-17.7-110.1-17.7s-71,6.2-90.5,19.1c-17.5,11.6-25.8,27.9-24.7,48.6,1.2,19.7,11.7,34.2,31.2,43.3,16,7.5,46,12.6,91.7,15.4,26.1,1.9,44.2,4,53.7,6.3,20.4,4.9,20.4,12.9,20.4,15.5,0,4.3-1.4,7.9-4.2,11.1-6.1,7-23.1,15.2-69.5,14.9-35.3-.3-68.1-5.9-97.3-16.6l-6.1-2.2-11.5,37.5,5.1,2.1c28.1,11.7,65.1,17.7,110.1,17.7s70.9-6.2,90.5-19.1c17.5-11.6,25.8-27.9,24.7-48.5-1.1-19.7-11.6-34.3-31.2-43.4Z"></path><polygon class="cls-2" points="464.2 348 501.5 348 622.1 141.4 572.2 141.4 482.7 299.6 393.3 141.4 343.4 141.4 464.2 348"></polygon></g><g><path class="cls-2" d="M121.2,137.5c27.6-33.8,38.1-65.7,38.1-65.7,0,0,10.5,32,38.1,65.7,11.5,14,27,30.9,40.4,50l21.4-37.9c-15.2-19.2-30.8-36.6-43.2-51.7C174.9,47.6,159.3,0,159.3,0c0,0-15.6,47.6-56.8,98-12.4,15.1-27.9,32.5-43.2,51.7l21.4,37.9c13.4-19.2,29-36,40.4-50Z"></path><path class="cls-2" d="M199,431.3c33-7.7,63.6-25,85.7-52.1h0c14.9-18.2,25.9-40.8,31.3-67.8,5-25.3,2.4-49.4-4.9-72.1l-112.1,192.1Z"></path><path class="cls-2" d="M2.6,311.3c5.4,27,16.4,49.6,31.3,67.8h0c22.2,27.2,53,44.6,86.1,52.2L7.5,239.1c-7.3,22.8-10,46.9-4.9,72.2Z"></path><path class="cls-1" d="M271.5,165.7l-112.3,198.4L47.1,165.7c-12.3,16.8-23.6,34.8-32.1,54l125.9,215.3c6.2.7,12.4,1.1,18.4,1.1,6.2,0,12.4-.4,18.8-1.2l125.6-215.1c-8.5-19.2-19.9-37.2-32.1-54Z"></path></g></svg>